<svg xmlns="http://www.w3.org/2000/svg" viewBox="0 0 24 24" data-name="GRAMMAR"><path fill="currentColor" d="M15.249 8.305h-6.67c.818 2.052 1.939 3.876 3.402 5.415 1.368-1.482 2.45-3.269 3.268-5.415m5.396 0h-2.736c-1.026 2.812-2.413 5.11-4.161 7.01 1.957 1.502 4.35 2.623 7.239 3.269-.551.55-1.273 1.614-1.615 2.26-3.06-.779-5.53-2.052-7.524-3.742-2.071 1.652-4.522 2.887-7.41 3.8-.266-.59-.97-1.654-1.425-2.204 2.812-.742 5.187-1.825 7.106-3.287-1.71-1.957-3.021-4.332-4.047-7.106H3.355V6.1h7.448V3.099h2.299V6.1h7.543z"></path></svg>
